<svg xmlns="http://www.w3.org/2000/svg" version="1.1" xmlns:xlink="http://www.w3.org/1999/xlink" xmlns:svgjs="http://svgjs.dev/svgjs" width="100%" height="100%" viewBox="0 0 1000 600"><rect width="1000" height="600" x="0" y="0" fill="#ffffff"/><g><rect width="333.3333333333333" height="333.3333333333333" rx="13.333333333333334" ry="13.333333333333334" y="451.81257735996445" fill="#1f9bed" transform="matrix(0.29097485355119174,0,0,0.29097485355119174,-35.48443066770559,120.03807409663989)" x="601.587158203125"/><path d="M586.8417559004797 543.4792451775305L586.8417559004797 543.4792451775305L596.8252407496423 550.4156614499016Q586.6683454936704 560.7707400279412 579.8557937975918 571.8690060637348Q573.0184691862546 582.9672720995285 569.599806880586 594.6600881015254Q566.1563716596589 606.3529041035222 566.1563716596589 618.3925409191377L566.1563716596589 618.3925409191377Q566.1563716596589 636.4024503120438 573.8607483050425 653.5700805861621Q581.5898978656845 670.7377108602805 596.8252407496423 686.1712370663059L596.8252407496423 686.1712370663059L586.8417559004797 693.4792470675541Q569.4511693890352 677.5007167258422 560.4833740654698 658.1530699089788Q551.5403516571629 638.8054230921152 551.5403516571629 618.3925409191377L551.5403516571629 618.3925409191377Q551.5403516571629 597.7814754240924 560.4833740654698 578.5081473530042Q569.4511693890352 559.2595921971747 586.8417559004797 543.4792451775305ZM654.8929541154912 675.2711543525801L654.8929541154912 675.2711543525801Q641.6889902827278 675.2711543525801 631.8293700098575 668.8549693006369Q621.9945226522457 662.4387842486937 616.4949354648659 649.5073224837734Q611.0201211927445 636.5758607188532 611.0201211927445 617.1291222409558L611.0201211927445 617.1291222409558Q611.0201211927445 597.6823837630584 616.4949354648659 584.8004678286551Q621.9945226522457 571.9185518942518 631.8293700098575 565.5519126728254Q641.6889902827278 559.1605005361407 654.8929541154912 559.1605005361407L654.8929541154912 559.1605005361407Q667.9978262872207 559.1605005361407 677.9069923906079 565.5519126728254Q687.7913855787366 571.9185518942518 693.2909727661165 584.8004678286551Q698.7657870382379 597.6823837630584 698.7657870382379 617.1291222409558L698.7657870382379 617.1291222409558Q698.7657870382379 636.5758607188532 693.2909727661165 649.5073224837734Q687.7913855787366 662.4387842486937 677.9069923906079 668.8549693006369Q667.9978262872207 675.2711543525801 654.8929541154912 675.2711543525801ZM654.8929541154912 662.4387842486937L654.8929541154912 662.4387842486937Q669.335563711178 662.4387842486937 676.8417570344938 650.6221036704044Q684.323177442551 638.8054230921152 684.323177442551 617.1291222409558L684.323177442551 617.1291222409558Q684.323177442551 595.4528213897963 676.8417570344938 583.6361408115072Q669.335563711178 571.8194602332179 654.8929541154912 571.8194602332179L654.8929541154912 571.8194602332179Q640.6237549266136 571.8194602332179 633.0432428575224 583.6361408115072Q625.4627307884313 595.4528213897963 625.4627307884313 617.1291222409558L625.4627307884313 617.1291222409558Q625.4627307884313 638.8054230921152 633.0432428575224 650.6221036704044Q640.6237549266136 662.4387842486937 654.8929541154912 662.4387842486937ZM827.4610818059789 673.1406836403519L717.5932026346736 673.1406836403519L717.5932026346736 661.0019551637025L827.4610818059789 661.0019551637025L827.4610818059789 673.1406836403519ZM885.8756159854463 675.2711543525801L885.8756159854463 675.2711543525801Q874.3809833055172 675.2711543525801 865.4131879819519 670.1927067245941Q856.4453926583864 665.1142590966082 851.2678533693665 655.1307742474456Q846.0903140803468 645.147289398283 846.0903140803468 630.5064964805285L846.0903140803468 630.5064964805285Q846.0903140803468 615.7913848169985 851.2678533693665 605.8574457983528Q856.4453926583864 595.8987338644488 865.4131879819519 590.8202862364628Q874.3809833055172 585.7418386084769 885.8756159854463 585.7418386084769L885.8756159854463 585.7418386084769Q897.2959299196001 585.7418386084769 906.2637252431654 590.8202862364628Q915.2067476514724 595.8987338644488 920.3347411099752 605.8574457983528Q925.4627345684781 615.7913848169985 925.4627345684781 630.5064964805285L925.4627345684781 630.5064964805285Q925.4627345684781 645.147289398283 920.3347411099752 655.1307742474456Q915.2067476514724 665.1142590966082 906.2637252431654 670.1927067245941Q897.2959299196001 675.2711543525801 885.8756159854463 675.2711543525801ZM885.5287951718278 663.1571987911892L885.5287951718278 663.1571987911892Q893.802948868156 663.1571987911892 899.5998110386375 659.1935323498344Q905.3966732091191 655.205092993221 908.3941959553937 647.897082991973Q911.3917187016683 640.589072990725 911.3917187016683 630.5064964805285L911.3917187016683 630.5064964805285Q911.3917187016683 615.2711535965707 905.0498523955006 606.4767686798145Q898.7079860893327 597.6823837630584 886.2224367990649 597.6823837630584L886.2224367990649 597.6823837630584Q877.8491914417027 597.6823837630584 872.1018751017382 601.6708231196718Q866.3545587617735 605.6344895610266 863.3570360154989 612.9920453927916Q860.3595132692243 620.3496012245566 860.3595132692243 630.5064964805285L860.3595132692243 630.5064964805285Q860.3595132692243 645.5932018729354 866.7509254059091 654.3628138744332Q873.1175646273354 663.1571987911892 885.5287951718278 663.1571987911892ZM949.6410998607429 693.4792470675541L949.6410998607429 693.4792470675541L939.484204604771 686.1712370663059Q954.7195474887287 670.7377108602805 962.5230157951462 653.5700805861621Q970.3264841015636 636.4024503120438 970.3264841015636 618.3925409191377L970.3264841015636 618.3925409191377Q970.3264841015636 606.3529041035222 966.8582759653781 594.6600881015254Q963.3652949139341 582.9672720995285 956.5031973873384 571.8690060637348Q949.6410998607429 560.7707400279412 939.484204604771 550.4156614499016L939.484204604771 550.4156614499016L949.6410998607429 543.4792451775305Q966.9325947111535 559.2595921971747 975.9499358652358 578.5081473530042Q984.9672770193182 597.7814754240924 984.9672770193182 618.3925409191377L984.9672770193182 618.3925409191377Q984.9672770193182 632.017644311295 980.9540647474463 645.2216081440585Q976.9408524755745 658.4255719768219 969.0382925081233 670.6386191992465Q961.1357325406719 682.8516664216712 949.6410998607429 693.4792470675541Z " fill="#ffffff" transform="matrix(0.29097485355119174,0,0,0.29097485355119174,-35.48443066770559,120.03807409663989)"/><path d="M1030.9320598694376 654.0184623468614L1018.2538066925348 654.0184623468614L1018.2538066925348 553.2608861325302L1050.6513112957275 553.2608861325302Q1067.2511331178587 553.2608861325302 1076.0523809295926 561.6610644237294Q1084.8313471012966 570.0389610748989 1084.8313471012966 584.3883372540297L1084.8313471012966 584.3883372540297Q1084.8313471012966 598.5817419529526 1076.0523809295926 606.8927936840329Q1067.2511331178587 615.2038454151133 1050.6513112957275 615.2038454151133L1050.6513112957275 615.2038454151133L1030.9320598694376 615.2038454151133L1030.9320598694376 654.0184623468614ZM1030.9320598694376 564.0229182668784L1030.9320598694376 604.2858418005574L1050.6513112957275 604.2858418005574Q1061.1682453897488 604.2858418005574 1066.5826839169674 598.9159665533981Q1071.997122444186 593.546091306239 1071.997122444186 584.3883372540297L1071.997122444186 584.3883372540297Q1071.997122444186 575.0968933616423 1066.5826839169674 569.5487649942454Q1061.1682453897488 564.0229182668784 1050.6513112957275 564.0229182668784L1050.6513112957275 564.0229182668784L1030.9320598694376 564.0229182668784ZM1134.0069266468581 655.9346833894161L1134.0069266468581 655.9346833894161Q1124.0470335535795 655.9346833894161 1116.2261779031528 650.8544694626431Q1108.405322252726 645.7519738958404 1103.8821493266955 636.68334640375Q1099.3366947606355 627.6370005516893 1099.3366947606355 615.8277313359451L1099.3366947606355 615.8277313359451Q1099.3366947606355 603.2386047191611 1103.837586046636 594.1699772270707Q1108.3384773326368 585.1236313750101 1116.1593329830637 580.2662338485341Q1123.9801886334903 575.4088363220582 1134.0069266468581 575.4088363220582L1134.0069266468581 575.4088363220582Q1142.7413295385031 575.4088363220582 1148.9133438267315 578.9293354467517Q1155.0853581149602 582.4721162114749 1158.8732369200102 588.4881590194957Q1162.6388340850306 594.5042018275162 1164.1094223269913 602.0799594376164Q1165.6022922089815 609.6557170477165 1164.95612464812 617.7662340185295L1164.95612464812 617.7662340185295L1109.452559334122 617.7662340185295L1109.452559334122 610.0567865682513L1156.6896361970992 610.0567865682513L1153.0131655921975 612.4632036914595Q1153.2582636325244 607.7394960051618 1152.4784062314845 602.9935066788344Q1151.7208304704745 598.2697989925366 1149.648637947712 594.303667067249Q1147.5541637849194 590.3375351419613 1143.7885666198993 587.9311180187531Q1140.0229694548789 585.5247008955448 1134.1628981270662 585.5247008955448L1134.1628981270662 585.5247008955448Q1126.7876752772333 585.5247008955448 1121.7965879105793 589.2902980605651Q1116.8277821839547 593.0558952255853 1114.3545201406573 599.1833462337546Q1111.8589764573303 605.3330788819535 1111.8589764573303 612.4632036914595L1111.8589764573303 612.4632036914595L1111.8589764573303 617.6102625383215Q1111.8589764573303 625.6316529490158 1114.309956860598 631.9596387174523Q1116.7609372638656 638.2876244858888 1121.6406164303712 641.9863767308201Q1126.5425772369067 645.6851289757512 1134.0069266468581 645.6851289757512L1134.0069266468581 645.6851289757512Q1141.4489944167801 645.6851289757512 1146.2618286631966 642.075503290939Q1151.0746629096132 638.4658776061265 1152.1218999910093 631.4025977167096L1152.1218999910093 631.4025977167096L1165.112096128328 631.4025977167096Q1163.908887566724 639.0229186068691 1159.6753759610797 644.5042020541769Q1155.4195827154058 650.0077671415143 1148.8464989066424 652.9712252654651Q1142.2511334578494 655.9346833894161 1134.0069266468581 655.9346833894161ZM1202.2555900578482 654.0184623468614L1189.755590001183 654.0184623468614L1189.755590001183 577.1690858844049L1202.2555900578482 577.1690858844049L1202.2555900578482 654.0184623468614ZM1202.2555900578482 619.3705121006683L1198.400866332709 619.3705121006683Q1198.400866332709 604.7760378812109 1201.2083529764518 595.1058061083183Q1204.0158396201948 585.4355743354258 1209.4302781474134 580.6673033690688Q1214.844716674632 575.8990324027117 1222.6432906850291 575.8990324027117L1222.6432906850291 575.8990324027117Q1225.2056792884455 575.8990324027117 1227.3224350912674 576.255538643187Q1229.4614725341194 576.6120448836623 1231.6227916170008 577.3250573646128L1231.6227916170008 577.3250573646128L1230.8206525759313 589.6913675810997Q1228.5702069329311 588.9560734601195 1225.918691769396 588.4435957394362Q1223.2671766058609 587.9311180187531 1221.1949840830982 587.9311180187531L1221.1949840830982 587.9311180187531Q1214.3768022340082 587.9311180187531 1210.210135548453 591.8081233839218Q1206.0211872228685 595.7074103891205 1204.149529460373 602.7706902785372Q1202.2555900578482 609.8116885279244 1202.2555900578482 619.3705121006683L1202.2555900578482 619.3705121006683ZM1275.3393693552841 655.9346833894161L1275.3393693552841 655.9346833894161Q1264.1762677004015 655.9346833894161 1256.7341999304795 652.7706905051978Q1249.269850520528 649.6066976209795 1245.415126795389 644.036287613553Q1241.5604030702498 638.4658776061265 1241.315305029923 631.2466262365017L1241.315305029923 631.2466262365017L1253.3473906459642 631.2466262365017Q1253.748460166499 638.5327225262156 1259.2520252538363 642.1869114910874Q1264.7555903411737 645.8411004559592 1274.2030057137692 645.8411004559592L1274.2030057137692 645.8411004559592Q1279.1940930804233 645.8411004559592 1283.3607597659784 644.2368223738204Q1287.5274264515335 642.6325442916816 1290.0229701348605 639.8250576479386Q1292.496232178158 637.0175710041956 1292.496232178158 633.4747902394723L1292.496232178158 633.4747902394723Q1292.496232178158 628.9961805935013 1289.2208310937913 626.4337919900852Q1285.9231483693948 623.8491217466393 1278.7038969997698 621.9329007040845L1278.7038969997698 621.9329007040845L1263.7751981798667 617.120066457668Q1254.0826847669446 614.0674817735983 1248.9133442800528 608.7421698064985Q1243.7217221531312 603.3945761993691 1243.7217221531312 595.9525084294472L1243.7217221531312 595.9525084294472Q1243.7217221531312 586.6387828970301 1251.921365684063 581.0238096095441Q1260.098727574965 575.4088363220582 1273.4008666726997 575.4088363220582L1273.4008666726997 575.4088363220582Q1287.5274264515335 575.4088363220582 1295.303718821901 581.179781089752Q1303.0800111922683 586.950725857446 1303.414235792714 595.6182838290016L1303.414235792714 595.6182838290016L1291.047925576227 595.6182838290016Q1290.3349130952765 590.5603515422583 1285.9231483693948 587.9533996587827Q1281.5113836435128 585.3464477753071 1273.4008666726997 585.3464477753071L1273.4008666726997 585.3464477753071Q1265.6245743023323 585.3464477753071 1261.2573728565098 588.844665259971Q1256.8901714106876 592.3428827446348 1256.8901714106876 596.576394350279L1256.8901714106876 596.576394350279Q1256.8901714106876 604.530939840884 1270.5265351088676 608.2965370059044L1270.5265351088676 608.2965370059044L1285.7671768891867 613.4213142127368Q1295.6379434223466 616.4070539767174 1300.8741288293274 621.2198882231339Q1306.1325958763382 626.0327224695504 1306.1325958763382 633.4747902394723L1306.1325958763382 633.4747902394723Q1306.1325958763382 639.268016647196 1302.3669987113178 644.3927938540284Q1298.6014015462974 649.5175710608607 1291.6940931370884 652.7261272251385Q1284.8090663679093 655.9346833894161 1275.3393693552841 655.9346833894161ZM1359.8090667079002 655.9346833894161L1359.8090667079002 655.9346833894161Q1349.4481040940868 655.9346833894161 1341.3821504033333 651.3669471833264Q1333.3384783526092 646.7992109772366 1328.6816155864008 637.8197100452651Q1324.0247528201921 628.8402091132934 1324.0247528201921 615.6717598557372L1324.0247528201921 615.6717598557372Q1324.0247528201921 602.4364656780917 1328.6816155864008 593.5015280261796Q1333.3384783526092 584.5443087342377 1341.3821504033333 579.9765725281479Q1349.4481040940868 575.4088363220582 1359.8090667079002 575.4088363220582L1359.8090667079002 575.4088363220582Q1370.058621121565 575.4088363220582 1378.1245748123185 579.9765725281479Q1386.1905285030723 584.5443087342377 1390.8028279892214 593.5015280261796Q1395.4151274753706 602.4364656780917 1395.4151274753706 615.6717598557372L1395.4151274753706 615.6717598557372Q1395.4151274753706 628.8402091132934 1390.8028279892214 637.8197100452651Q1386.1905285030723 646.7992109772366 1378.1245748123185 651.3669471833264Q1370.058621121565 655.9346833894161 1359.8090667079002 655.9346833894161ZM1359.4748421074546 645.0389614148899L1359.4748421074546 645.0389614148899Q1366.9391915174062 645.0389614148899 1372.1530952843573 641.4738990101368Q1377.3669990513085 637.8865549653542 1380.063077494903 631.3134711565908Q1382.736874298468 624.7403873478276 1382.736874298468 615.6717598557372L1382.736874298468 615.6717598557372Q1382.736874298468 601.9685512374679 1377.0550560908928 594.0585690269222Q1371.350956243288 586.1485868163766 1360.121009668316 586.1485868163766L1360.121009668316 586.1485868163766Q1352.5898153382755 586.1485868163766 1347.3981932113538 589.7359308611592Q1342.228852724462 593.3009932659122 1339.5550559208973 599.9186403547349Q1336.858977477303 606.5362874435576 1336.858977477303 615.6717598557372L1336.858977477303 615.6717598557372Q1336.858977477303 629.2412786338282 1342.5853589649373 637.1289792043442Q1348.3340220926016 645.0389614148899 1359.4748421074546 645.0389614148899ZM1486.6138801169577 654.0184623468614L1474.2698515405007 654.0184623468614L1474.2698515405007 608.9427045667659Q1474.2698515405007 597.9578560321207 1469.01138449349 592.2091929044566Q1463.7529174464792 586.4828114168221 1454.684289954389 586.4828114168221L1454.684289954389 586.4828114168221Q1447.7992631852096 586.4828114168221 1442.7413308984665 590.2484085818425Q1437.683398611723 594.0140057468627 1434.965038528099 601.0327223562201Q1432.2243968044452 608.0514389655776 1432.2243968044452 617.7662340185295L1432.2243968044452 617.7662340185295L1427.4115625580287 617.7662340185295Q1427.4115625580287 604.3749683606761 1430.9543433227518 594.905271348051Q1434.4748424474456 585.4355743354258 1441.248461016476 580.422205328742Q1448.0443612255365 575.4088363220582 1457.7368746384586 575.4088363220582L1457.7368746384586 575.4088363220582Q1466.805502130549 575.4088363220582 1473.2671777391638 579.4640948074647Q1479.7288533477786 583.5193532928712 1483.1602259123533 591.0505476229118Q1486.6138801169577 598.5817419529526 1486.6138801169577 608.9427045667659L1486.6138801169577 608.9427045667659L1486.6138801169577 654.0184623468614ZM1432.2243968044452 654.0184623468614L1419.72439674778 654.0184623468614L1419.72439674778 577.3250573646128L1430.4641472420983 577.3250573646128L1432.2243968044452 594.9721162681401L1432.2243968044452 654.0184623468614ZM1583.4276060460309 654.0184623468614L1571.0835774695738 654.0184623468614L1571.0835774695738 608.9427045667659Q1571.0835774695738 597.9578560321207 1565.825110422563 592.2091929044566Q1560.5666433755525 586.4828114168221 1551.5202975234918 586.4828114168221L1551.5202975234918 586.4828114168221Q1544.6129891142828 586.4828114168221 1539.5550568275396 590.2484085818425Q1534.4971245407962 594.0140057468627 1531.778764457172 601.0327223562201Q1529.060404373548 608.0514389655776 1529.060404373548 617.7662340185295L1529.060404373548 617.7662340185295L1524.2475701271314 617.7662340185295Q1524.2475701271314 604.3749683606761 1527.768069251825 594.905271348051Q1531.2885683765185 585.4355743354258 1538.0844685855789 580.422205328742Q1544.8580871546096 575.4088363220582 1554.5506005675318 575.4088363220582L1554.5506005675318 575.4088363220582Q1563.6192280596222 575.4088363220582 1570.080903668237 579.4640948074647Q1576.5425792768517 583.5193532928712 1579.996233481456 591.0505476229118Q1583.4276060460309 598.5817419529526 1583.4276060460309 608.9427045667659L1583.4276060460309 608.9427045667659L1583.4276060460309 654.0184623468614ZM1529.060404373548 654.0184623468614L1516.5381226768532 654.0184623468614L1516.5381226768532 577.3250573646128L1527.2778731711714 577.3250573646128L1529.060404373548 594.9721162681401L1529.060404373548 654.0184623468614ZM1639.9784084414252 655.9346833894161L1639.9784084414252 655.9346833894161Q1630.0407969881762 655.9346833894161 1622.2199413377493 650.8544694626431Q1614.3990856873224 645.7519738958404 1609.875912761292 636.68334640375Q1605.330458195232 627.6370005516893 1605.330458195232 615.8277313359451L1605.330458195232 615.8277313359451Q1605.330458195232 603.2386047191611 1609.8313494812326 594.1699772270707Q1614.3099591272035 585.1236313750101 1622.1308147776303 580.2662338485341Q1629.9516704280575 575.4088363220582 1639.9784084414252 575.4088363220582L1639.9784084414252 575.4088363220582Q1648.7350929730994 575.4088363220582 1654.9071072613283 578.9293354467517Q1661.0791215495567 582.4721162114749 1664.8447187145773 588.4881590194957Q1668.632597519627 594.5042018275162 1670.1031857615878 602.0799594376164Q1671.5960556435782 609.6557170477165 1670.9498880827166 617.7662340185295L1670.9498880827166 617.7662340185295L1615.4463227687186 617.7662340185295L1615.4463227687186 610.0567865682513L1662.6833996316957 610.0567865682513L1659.006929026794 612.4632036914595Q1659.2297454270913 607.7394960051618 1658.472169666081 602.9935066788344Q1657.7145939050713 598.2697989925366 1655.6201197422788 594.303667067249Q1653.5479272195162 590.3375351419613 1649.7823300544958 587.9311180187531Q1645.994451249446 585.5247008955448 1640.1566615616628 585.5247008955448L1640.1566615616628 585.5247008955448Q1632.7591570718002 585.5247008955448 1627.7903513451758 589.2902980605651Q1622.8215456185512 593.0558952255853 1620.3260019352242 599.1833462337546Q1617.8527398919268 605.3330788819535 1617.8527398919268 612.4632036914595L1617.8527398919268 612.4632036914595L1617.8527398919268 617.6102625383215Q1617.8527398919268 625.6316529490158 1620.3037202951946 631.9596387174523Q1622.7324190584327 638.2876244858888 1627.634379864968 641.9863767308201Q1632.5363406715032 645.6851289757512 1639.9784084414252 645.6851289757512L1639.9784084414252 645.6851289757512Q1647.4427578513767 645.6851289757512 1652.2555920977932 642.075503290939Q1657.0684263442097 638.4658776061265 1658.115663425606 631.4025977167096L1658.115663425606 631.4025977167096L1671.1058595629245 631.4025977167096Q1669.9026510013205 639.0229186068691 1665.6468577556468 644.5042020541769Q1661.4133461500023 650.0077671415143 1654.8179807012093 652.9712252654651Q1648.2448968924461 655.9346833894161 1639.9784084414252 655.9346833894161ZM1708.2493534924447 654.0184623468614L1695.72707179575 654.0184623468614L1695.72707179575 544.6156098010042L1708.2493534924447 544.6156098010042L1708.2493534924447 654.0184623468614ZM1799.2030080937052 564.0229182668784L1763.507820766116 564.0229182668784L1763.507820766116 553.2608861325302L1841.9614753107112 553.2608861325302L1841.9614753107112 564.0229182668784L1806.1103165029142 564.0229182668784L1808.917803146657 561.1263050630165L1808.917803146657 654.0184623468614L1796.3955214499622 654.0184623468614L1796.3955214499622 561.1263050630165L1799.2030080937052 564.0229182668784ZM1866.1147731029127 559.2100840204619L1866.1147731029127 559.2100840204619Q1862.2600493777736 559.2100840204619 1860.0096037347732 557.0042016575209Q1857.7591580917726 554.79831929458 1857.7591580917726 551.1886936097676L1857.7591580917726 551.1886936097676Q1857.7591580917726 547.6459128450442 1860.0096037347732 545.5737203222816Q1862.2600493777736 543.4792461594893 1866.1147731029127 543.4792461594893L1866.1147731029127 543.4792461594893Q1869.9694968280517 543.4792461594893 1872.1976608310226 545.5737203222816Q1874.4481064740228 547.6459128450442 1874.4481064740228 551.1886936097676L1874.4481064740228 551.1886936097676Q1874.4481064740228 554.79831929458 1872.1976608310226 557.0042016575209Q1869.9694968280517 559.2100840204619 1866.1147731029127 559.2100840204619ZM1872.3759139512601 654.0184623468614L1859.8536322545654 654.0184623468614L1859.8536322545654 577.1690858844049L1872.3759139512601 577.1690858844049L1872.3759139512601 654.0184623468614ZM2027.188748877658 654.0184623468614L2014.6664671809633 654.0184623468614L2014.6664671809633 608.9427045667659Q2014.6664671809633 597.9578560321207 2009.4080001339528 592.2091929044566Q2004.1495330869423 586.4828114168221 1995.2591587150894 586.4828114168221L1995.2591587150894 586.4828114168221Q1984.8313511811868 586.4828114168221 1979.2832228137902 594.5487651075757Q1973.757376086423 602.5924371582996 1973.757376086423 616.8081234972522L1973.757376086423 616.8081234972522L1967.9864313187293 616.8081234972522Q1967.9864313187293 606.4471608834388 1970.0363422014623 598.6708685130714Q1972.0639714441652 590.894576142704 1976.0078217294233 585.7252356558121Q1979.9293903746518 580.5336135288906 1985.5443636621374 577.9712249254744Q1991.1593369496234 575.4088363220582 1998.311743399159 575.4088363220582L1998.311743399159 575.4088363220582Q2007.3580892512198 575.4088363220582 2013.8197648598345 579.4640948074647Q2020.2814404684493 583.5193532928712 2023.7350946730537 591.0505476229118Q2027.188748877658 598.5817419529526 2027.188748877658 608.9427045667659L2027.188748877658 608.9427045667659L2027.188748877658 654.0184623468614ZM1919.3678927739104 654.0184623468614L1906.8678927172452 654.0184623468614L1906.8678927172452 577.3250573646128L1917.6076432115635 577.3250573646128L1919.0559498134944 592.7439522651696Q1922.665575498307 584.3883372540297 1929.1940960270108 579.9097276080588Q1935.7448981957443 575.4088363220582 1944.8803706079239 575.4088363220582L1944.8803706079239 575.4088363220582Q1953.9489981000143 575.4088363220582 1960.4106737086292 579.4640948074647Q1966.8500676772142 583.5193532928712 1970.3037218818188 591.0505476229118Q1973.757376086423 598.5817419529526 1973.757376086423 608.9427045667659L1973.757376086423 608.9427045667659L1973.757376086423 654.0184623468614L1961.413347509966 654.0184623468614L1961.413347509966 608.9427045667659Q1961.413347509966 597.9578560321207 1956.1548804629554 592.2091929044566Q1950.8964134159444 586.4828114168221 1941.827785923854 586.4828114168221L1941.827785923854 586.4828114168221Q1934.942759154675 586.4828114168221 1929.8848268679317 590.2484085818425Q1924.8268945811883 594.0140057468627 1922.108534497564 601.0327223562201Q1919.3678927739104 608.0514389655776 1919.3678927739104 617.7662340185295L1919.3678927739104 617.7662340185295L1919.3678927739104 654.0184623468614ZM2083.5612981528147 655.9346833894161L2083.5612981528147 655.9346833894161Q2073.623686699566 655.9346833894161 2065.802831049139 650.8544694626431Q2057.981975398712 645.7519738958404 2053.458802472682 636.68334640375Q2048.913347906622 627.6370005516893 2048.913347906622 615.8277313359451L2048.913347906622 615.8277313359451Q2048.913347906622 603.2386047191611 2053.4142391926225 594.1699772270707Q2057.8928488385936 585.1236313750101 2065.7137044890205 580.2662338485341Q2073.5345601394474 575.4088363220582 2083.5612981528147 575.4088363220582L2083.5612981528147 575.4088363220582Q2092.31798268449 575.4088363220582 2098.4899969727176 578.9293354467517Q2104.662011260946 582.4721162114749 2108.4276084259673 588.4881590194957Q2112.2154872310166 594.5042018275162 2113.686075472978 602.0799594376164Q2115.178945354968 609.6557170477165 2114.5327777941066 617.7662340185295L2114.5327777941066 617.7662340185295L2059.029212480108 617.7662340185295L2059.029212480108 610.0567865682513L2106.266289343085 610.0567865682513L2102.5898187381836 612.4632036914595Q2102.812635138481 607.7394960051618 2102.0550593774706 602.9935066788344Q2101.2974836164612 598.2697989925366 2099.2030094536685 594.303667067249Q2097.130816930906 590.3375351419613 2093.3652197658857 587.9311180187531Q2089.5773409608355 585.5247008955448 2083.7395512730527 585.5247008955448L2083.7395512730527 585.5247008955448Q2076.34204678319 585.5247008955448 2071.3732410565653 589.2902980605651Q2066.4044353299414 593.0558952255853 2063.9088916466144 599.1833462337546Q2061.4356296033166 605.3330788819535 2061.4356296033166 612.4632036914595L2061.4356296033166 612.4632036914595L2061.4356296033166 617.6102625383215Q2061.4356296033166 625.6316529490158 2063.8866100065843 631.9596387174523Q2066.315308769822 638.2876244858888 2071.2172695763575 641.9863767308201Q2076.119230382893 645.6851289757512 2083.5612981528147 645.6851289757512L2083.5612981528147 645.6851289757512Q2091.0256475627666 645.6851289757512 2095.8384818091827 642.075503290939Q2100.6513160555996 638.4658776061265 2101.6985531369955 631.4025977167096L2101.6985531369955 631.4025977167096L2114.6887492743144 631.4025977167096Q2113.4855407127106 639.0229186068691 2109.229747467036 644.5042020541769Q2104.996235861392 650.0077671415143 2098.400870412599 652.9712252654651Q2091.827786603836 655.9346833894161 2083.5612981528147 655.9346833894161ZM2177.4115659579375 654.0184623468614L2177.4115659579375 553.2608861325302L2195.3928494619095 553.2608861325302L2230.040799708103 622.8910112253619L2228.7484645863797 622.8910112253619L2263.418696472603 553.2608861325302L2280.8875022558923 553.2608861325302L2280.8875022558923 654.0184623468614L2268.2315307190192 654.0184623468614L2268.2315307190192 566.2733639098786L2270.4596947219898 566.2733639098786L2233.5612988327966 641.3402091699586L2225.227965461687 641.3402091699586L2188.4855410527007 566.7412783505024L2189.933847654632 566.7412783505024L2189.933847654632 654.0184623468614L2177.4115659579375 654.0184623468614ZM2371.707467016974 654.0184623468614L2360.7894634024187 654.0184623468614L2359.1851853202797 637.1735424844035L2359.1851853202797 604.2858418005574Q2359.1851853202797 593.9471608267736 2354.773420594398 589.4017062607136Q2350.361655868516 584.8785333346832 2341.5381264167527 584.8785333346832L2341.5381264167527 584.8785333346832Q2336.569320690128 584.8785333346832 2332.514062204721 586.3268399366141Q2328.4588037193153 587.7528648985153 2326.096949876166 590.7608863025257Q2323.735096033017 593.768907706536 2323.735096033017 598.5148970328635L2323.735096033017 598.5148970328635L2309.7645077343914 598.5148970328635Q2309.7645077343914 590.1592820217236 2313.8643294998574 585.0790680949506Q2317.9641512653234 579.9765725281479 2325.1388393548887 577.7038452451179Q2332.313527444454 575.4088363220582 2341.5381264167527 575.4088363220582L2341.5381264167527 575.4088363220582Q2350.361655868516 575.4088363220582 2357.1798377176056 578.372294446009Q2363.998019566696 581.33575256996 2367.8527432918354 587.7974281785748Q2371.707467016974 594.2591037871896 2371.707467016974 604.5977847609731L2371.707467016974 604.5977847609731L2371.707467016974 654.0184623468614ZM2334.630818007543 655.9346833894161L2334.630818007543 655.9346833894161Q2325.183402634948 655.9346833894161 2318.98910670669 652.5701557449305Q2312.8170924184615 649.2056281004449 2309.7645077343914 643.8357528532856Q2306.7342046903514 638.4658776061265 2306.7342046903514 632.516679718195L2306.7342046903514 632.516679718195Q2306.7342046903514 624.7403873478276 2310.61121005552 619.8384265412922Q2314.510497060719 614.9587473747865 2321.23955234969 612.6637384517268Q2327.9908892786916 610.3910111686968 2336.41334920992 610.3910111686968L2336.41334920992 610.3910111686968Q2342.4293920179407 610.3910111686968 2348.4677164659915 611.5942197303009Q2354.5283225540716 612.797428291905 2360.299267321765 614.8696208146678L2360.299267321765 614.8696208146678L2360.299267321765 622.7350397451539Q2355.486433075348 620.8188187025992 2349.448108627298 619.6824550610843Q2343.387502539218 618.5683730595989 2338.3295702524747 618.5683730595989L2338.3295702524747 618.5683730595989Q2330.6201228021964 618.5683730595989 2325.339374115156 621.7323659438172Q2320.036343788086 624.8963588280354 2320.036343788086 632.516679718195L2320.036343788086 632.516679718195Q2320.036343788086 638.1316530056808 2324.0916022734928 642.142348211028Q2328.1468607588995 646.1530434163751 2337.0372351307515 646.1530434163751L2337.0372351307515 646.1530434163751Q2343.2983759790986 646.1530434163751 2348.3117449857828 643.2341485724836Q2353.325113992467 640.2929720885625 2356.2662904763883 635.8812073626806Q2359.1851853202797 631.4694426367987 2359.1851853202797 627.0576779109169L2359.1851853202797 627.0576779109169L2362.23777000435 627.0576779109169Q2362.23777000435 634.7671253611952 2358.895523999893 641.3402091699586Q2355.5755596354675 647.9132929787219 2349.403545347239 651.923988184069Q2343.23153105901 655.9346833894161 2334.630818007543 655.9346833894161ZM2468.5211929460474 654.0184623468614L2456.154882729561 654.0184623468614L2456.154882729561 608.9427045667659Q2456.154882729561 597.9578560321207 2450.9186973225796 592.2091929044566Q2445.660230275569 586.4828114168221 2436.591602783479 586.4828114168221L2436.591602783479 586.4828114168221Q2429.6842943742695 586.4828114168221 2424.648643727556 590.2484085818425Q2419.590711440813 594.0140057468627 2416.8500697171594 601.0327223562201Q2414.131709633535 608.0514389655776 2414.131709633535 617.7662340185295L2414.131709633535 617.7662340185295L2409.318875387119 617.7662340185295Q2409.318875387119 604.3749683606761 2412.839374511812 594.905271348051Q2416.3821552765357 585.4355743354258 2423.155773845566 580.422205328742Q2429.929392414597 575.4088363220582 2439.6441874675484 575.4088363220582L2439.6441874675484 575.4088363220582Q2448.712814959639 575.4088363220582 2455.1522089282244 579.4640948074647Q2461.6138845368387 583.5193532928712 2465.067538741443 591.0505476229118Q2468.5211929460474 598.5817419529526 2468.5211929460474 608.9427045667659L2468.5211929460474 608.9427045667659L2468.5211929460474 654.0184623468614ZM2414.131709633535 654.0184623468614L2401.60942793684 654.0184623468614L2401.60942793684 577.3250573646128L2412.3714600711883 577.3250573646128L2414.131709633535 594.9721162681401L2414.131709633535 654.0184623468614ZM2556.823332383773 654.0184623468614L2545.927610409247 654.0184623468614L2544.323332327108 637.1735424844035L2544.323332327108 604.2858418005574Q2544.323332327108 593.9471608267736 2539.911567601226 589.4017062607136Q2535.4998028753444 584.8785333346832 2526.676273423581 584.8785333346832L2526.676273423581 584.8785333346832Q2521.707467696956 584.8785333346832 2517.65220921155 586.3268399366141Q2513.5969507261434 587.7528648985153 2511.235096882994 590.7608863025257Q2508.873243039846 593.768907706536 2508.873243039846 598.5148970328635L2508.873243039846 598.5148970328635L2494.9026547412195 598.5148970328635Q2494.9026547412195 590.1592820217236 2499.0024765066855 585.0790680949506Q2503.0800166321214 579.9765725281479 2510.276986361717 577.7038452451179Q2517.451674451282 575.4088363220582 2526.676273423581 575.4088363220582L2526.676273423581 575.4088363220582Q2535.4998028753444 575.4088363220582 2542.3179847244346 578.372294446009Q2549.136166573525 581.33575256996 2552.9908902986635 587.7974281785748Q2556.823332383773 594.2591037871896 2556.823332383773 604.5977847609731L2556.823332383773 604.5977847609731L2556.823332383773 654.0184623468614ZM2519.768965014372 655.9346833894161L2519.768965014372 655.9346833894161Q2510.299268001747 655.9346833894161 2504.1272537135183 652.5701557449305Q2497.9552394252896 649.2056281004449 2494.9026547412195 643.8357528532856Q2491.8500700571503 638.4658776061265 2491.8500700571503 632.516679718195L2491.8500700571503 632.516679718195Q2491.8500700571503 624.7403873478276 2495.7493570623483 619.8384265412922Q2499.648644067547 614.9587473747865 2506.377699356519 612.6637384517268Q2513.1067546454897 610.3910111686968 2521.529214576718 610.3910111686968L2521.529214576718 610.3910111686968Q2527.5452573847397 610.3910111686968 2533.6058634728197 611.5942197303009Q2539.6664695608997 612.797428291905 2545.437414328593 614.8696208146678L2545.437414328593 614.8696208146678L2545.437414328593 622.7350397451539Q2540.624580082177 620.8188187025992 2534.563973994096 619.6824550610843Q2528.525649546046 618.5683730595989 2523.467717259303 618.5683730595989L2523.467717259303 618.5683730595989Q2515.7582698090246 618.5683730595989 2510.477521121985 621.7323659438172Q2505.174490794914 624.8963588280354 2505.174490794914 632.516679718195L2505.174490794914 632.516679718195Q2505.174490794914 638.1316530056808 2509.229749280321 642.142348211028Q2513.2850077657276 646.1530434163751 2522.1753821375805 646.1530434163751L2522.1753821375805 646.1530434163751Q2528.4365229859277 646.1530434163751 2533.449891992611 643.2341485724836Q2538.463260999295 640.2929720885625 2541.3821558431864 635.8812073626806Q2544.323332327108 631.4694426367987 2544.323332327108 627.0576779109169L2544.323332327108 627.0576779109169L2547.375917011178 627.0576779109169Q2547.375917011178 634.7671253611952 2544.033671006722 641.3402091699586Q2540.7137066422956 647.9132929787219 2534.541692354067 651.923988184069Q2528.3473964258083 655.9346833894161 2519.768965014372 655.9346833894161ZM2613.864330859821 693.479246839471L2613.864330859821 693.479246839471Q2602.077343284106 693.479246839471 2593.4097853125504 690.1592824750447Q2584.7422273409948 686.8170364705888 2579.973956374638 681.2466264631623Q2575.2056854082803 675.6762164557358 2575.2056854082803 668.9471611667645L2575.2056854082803 668.9471611667645Q2575.2056854082803 660.034505154882 2581.734205936985 655.3330791086141Q2588.2850081057186 650.6539347023758 2598.6236890795017 650.6539347023758L2598.6236890795017 650.6539347023758L2605.5309974887105 654.9765728681388Q2596.863439517155 654.9765728681388 2592.117450190828 658.5861985529511Q2587.3937425045297 662.1958242377635 2587.3937425045297 668.4569650861109L2587.3937425045297 668.4569650861109Q2587.3937425045297 674.7181059344584 2594.1227977935014 679.0407441002213Q2600.8741347225023 683.3856639060141 2613.864330859821 683.3856639060141L2613.864330859821 683.3856639060141Q2623.489999352654 683.3856639060141 2630.753814002338 680.6004589023008Q2638.0176286520227 677.8375355386172 2642.0506054973994 673.381207532676Q2646.105863982805 668.9471611667645 2646.105863982805 663.8001023199024L2646.105863982805 663.8001023199024Q2646.105863982805 660.19047663509 2643.4543488192703 657.5835247516144Q2640.8251152957655 654.9765728681388 2635.366113488487 654.9765728681388L2635.366113488487 654.9765728681388L2605.5309974887105 654.9765728681388Q2597.7324234783136 654.9765728681388 2592.095168550798 652.6147190249899Q2586.4356319832523 650.2528651818411 2583.383047299182 646.3981414567019Q2580.330462615113 642.5434177315627 2580.330462615113 637.975681525473L2580.330462615113 637.975681525473Q2580.330462615113 633.1628472790565 2583.0711043387673 629.7983196345708Q2585.7894644223907 626.4337919900852 2590.156665868214 624.6512607877087Q2594.5238673140357 622.8910112253619 2599.581799600779 622.8910112253619L2599.581799600779 622.8910112253619L2601.9882167239875 627.5478739915704Q2599.581799600779 627.5478739915704 2597.1308191975113 628.6396743530261Q2594.7021204342736 629.7091930744521 2593.0532790720754 631.8482305173038Q2591.404437709877 633.9649863201258 2591.404437709877 637.1735424844035L2591.404437709877 637.1735424844035Q2591.404437709877 640.8722947293347 2594.4570223939463 643.3455567726321Q2597.5096070780164 645.8411004559592 2605.5309974887105 645.8411004559592L2605.5309974887105 645.8411004559592L2635.366113488487 645.8411004559592Q2646.1949905429246 645.8411004559592 2652.4115681112125 650.408836662049Q2658.6281456795004 654.9765728681388 2658.6281456795004 663.1539347590409L2658.6281456795004 663.1539347590409Q2658.6281456795004 670.7074107291113 2653.2582704323413 677.6370007783498Q2647.866113545152 684.5888724676182 2637.8393755317848 689.0229188335297Q2627.8126375184165 693.479246839471 2613.864330859821 693.479246839471ZM2616.114776502821 631.5585691969176L2616.114776502821 631.5585691969176Q2607.2912470510573 631.5585691969176 2600.1834038815814 628.0380700722241Q2593.0978423521346 624.4952893075008 2588.9534573066094 618.1673035390642Q2584.831353901114 611.8170361305979 2584.831353901114 603.4837027594879L2584.831353901114 603.4837027594879Q2584.831353901114 595.061242828259 2588.9534573066094 588.7332570598223Q2593.0978423521346 582.3829896513562 2600.1834038815814 578.9070538067219Q2607.2912470510573 575.4088363220582 2616.114776502821 575.4088363220582L2616.114776502821 575.4088363220582Q2624.693207914258 575.4088363220582 2631.7119245236154 578.9070538067219Q2638.730641132973 582.3829896513562 2642.897307818528 588.7332570598223Q2647.0639745040826 595.061242828259 2647.0639745040826 603.4837027594879L2647.0639745040826 603.4837027594879Q2647.0639745040826 611.8170361305979 2642.897307818528 618.1673035390642Q2638.730641132973 624.4952893075008 2631.7119245236154 628.0380700722241Q2624.693207914258 631.5585691969176 2616.114776502821 631.5585691969176ZM2616.114776502821 622.579068264946L2616.114776502821 622.579068264946Q2624.9383059545853 622.579068264946 2629.8179851210907 617.120066457668Q2634.719945927626 611.66106465039 2634.719945927626 603.4837027594879L2634.719945927626 603.4837027594879Q2634.719945927626 595.061242828259 2629.8179851210907 589.8027757812483Q2624.9383059545853 584.5443087342377 2616.114776502821 584.5443087342377L2616.114776502821 584.5443087342377Q2607.3580919711467 584.5443087342377 2602.3447229644626 589.8027757812483Q2597.3313539577794 595.061242828259 2597.3313539577794 603.4837027594879L2597.3313539577794 603.4837027594879Q2597.3313539577794 611.66106465039 2602.3447229644626 617.120066457668Q2607.3580919711467 622.579068264946 2616.114776502821 622.579068264946ZM2641.293029736389 587.5968934183074L2641.293029736389 587.5968934183074L2635.366113488487 585.1904762950992Q2635.366113488487 578.4614210061279 2638.0176286520227 573.3589254393252Q2640.6468621755275 568.2787115125521 2645.548822982063 565.4266615887498Q2650.4507837885985 562.5746116649474 2657.1798390775693 562.5746116649474L2657.1798390775693 562.5746116649474L2656.221728556292 574.9186402414045Q2649.0024771866674 574.9186402414045 2645.147753461528 578.0157882055337Q2641.293029736389 581.1129361696629 2641.293029736389 587.5968934183074ZM2703.949001499923 655.9346833894161L2703.949001499923 655.9346833894161Q2693.989108406644 655.9346833894161 2686.168252756217 650.8544694626431Q2678.34739710579 645.7519738958404 2673.8242241797598 636.68334640375Q2669.3010512537294 627.6370005516893 2669.3010512537294 615.8277313359451L2669.3010512537294 615.8277313359451Q2669.3010512537294 603.2386047191611 2673.7796608997005 594.1699772270707Q2678.2805521857017 585.1236313750101 2686.1014078361286 580.2662338485341Q2693.9222634865546 575.4088363220582 2703.949001499923 575.4088363220582L2703.949001499923 575.4088363220582Q2712.683404391568 575.4088363220582 2718.8554186797965 578.9293354467517Q2725.0497146080543 582.4721162114749 2728.8153117730753 588.4881590194957Q2732.5809089380955 594.5042018275162 2734.073778820086 602.0799594376164Q2735.544367062046 609.6557170477165 2734.8981995011845 617.7662340185295L2734.8981995011845 617.7662340185295L2679.394634187187 617.7662340185295L2679.394634187187 610.0567865682513L2726.6539926901933 610.0567865682513L2722.9552404452625 612.4632036914595Q2723.200338485589 607.7394960051618 2722.4427627245786 602.9935066788344Q2721.6629053235392 598.2697989925366 2719.5907128007766 594.303667067249Q2717.496238637984 590.3375351419613 2713.7306414729637 587.9311180187531Q2709.9650443079436 585.5247008955448 2704.1049729801307 585.5247008955448L2704.1049729801307 585.5247008955448Q2696.7297501302983 585.5247008955448 2691.7609444036734 589.2902980605651Q2686.7698570370194 593.0558952255853 2684.2965949937216 599.1833462337546Q2681.8010513103945 605.3330788819535 2681.8010513103945 612.4632036914595L2681.8010513103945 612.4632036914595L2681.8010513103945 617.6102625383215Q2681.8010513103945 625.6316529490158 2684.2520317136623 631.9596387174523Q2686.70301211693 638.2876244858888 2691.5826912834355 641.9863767308201Q2696.484652089971 645.6851289757512 2703.949001499923 645.6851289757512L2703.949001499923 645.6851289757512Q2711.4133509098738 645.6851289757512 2716.2261851562907 642.075503290939Q2721.0390194027077 638.4658776061265 2722.0639748440735 631.4025977167096L2722.0639748440735 631.4025977167096L2735.0764526214225 631.4025977167096Q2733.873244059818 639.0229186068691 2729.617450814144 644.5042020541769Q2725.36165756847 650.0077671415143 2718.788573759707 652.9712252654651Q2712.215489950944 655.9346833894161 2703.949001499923 655.9346833894161ZM2880.018521014661 654.0184623468614L2867.496239317966 654.0184623468614L2867.496239317966 608.9427045667659Q2867.496239317966 597.9578560321207 2862.2377722709552 592.2091929044566Q2857.001586863974 586.4828114168221 2848.088930852092 586.4828114168221L2848.088930852092 586.4828114168221Q2837.6611233181893 586.4828114168221 2832.1352765908223 594.5487651075757Q2826.587148223425 602.5924371582996 2826.587148223425 616.8081234972522L2826.587148223425 616.8081234972522L2820.8162034557317 616.8081234972522Q2820.8162034557317 606.4471608834388 2822.8661143384643 598.6708685130714Q2824.9160252211977 590.894576142704 2828.837593866426 585.7252356558121Q2832.759162511654 580.5336135288906 2838.3741357991403 577.9712249254744Q2843.989109086626 575.4088363220582 2851.141515536162 575.4088363220582L2851.141515536162 575.4088363220582Q2860.210143028252 575.4088363220582 2866.649536996837 579.4640948074647Q2873.1112126054522 583.5193532928712 2876.5648668100557 591.0505476229118Q2880.018521014661 598.5817419529526 2880.018521014661 608.9427045667659L2880.018521014661 608.9427045667659L2880.018521014661 654.0184623468614ZM2772.197664910913 654.0184623468614L2759.6976648542477 654.0184623468614L2759.6976648542477 577.3250573646128L2770.437415348566 577.3250573646128L2771.885721950497 592.7439522651696Q2775.4953476353094 584.3883372540297 2782.023868164013 579.9097276080588Q2788.574670332747 575.4088363220582 2797.710142744926 575.4088363220582L2797.710142744926 575.4088363220582Q2806.778770237017 575.4088363220582 2813.2404458456313 579.4640948074647Q2819.7021214542465 583.5193532928712 2823.133494018821 591.0505476229118Q2826.587148223425 598.5817419529526 2826.587148223425 608.9427045667659L2826.587148223425 608.9427045667659L2826.587148223425 654.0184623468614L2814.243119646968 654.0184623468614L2814.243119646968 608.9427045667659Q2814.243119646968 597.9578560321207 2808.9846525999574 592.2091929044566Q2803.726185552947 586.4828114168221 2794.657558060857 586.4828114168221L2794.657558060857 586.4828114168221Q2787.7725312916773 586.4828114168221 2782.714599004934 590.2484085818425Q2777.6566667181905 594.0140057468627 2774.9383066345663 601.0327223562201Q2772.197664910913 608.0514389655776 2772.197664910913 617.7662340185295L2772.197664910913 617.7662340185295L2772.197664910913 654.0184623468614ZM2936.4133519298466 655.9346833894161L2936.4133519298466 655.9346833894161Q2926.4534588365677 655.9346833894161 2918.6326031861418 650.8544694626431Q2910.811747535715 645.7519738958404 2906.2885746096845 636.68334640375Q2901.743120043624 627.6370005516893 2901.743120043624 615.8277313359451L2901.743120043624 615.8277313359451Q2901.743120043624 603.2386047191611 2906.2440113296243 594.1699772270707Q2910.7449026156255 585.1236313750101 2918.5657582660524 580.2662338485341Q2926.3866139164793 575.4088363220582 2936.4133519298466 575.4088363220582L2936.4133519298466 575.4088363220582Q2945.1477548214916 575.4088363220582 2951.3197691097203 578.9293354467517Q2957.491783397949 582.4721162114749 2961.279662202999 588.4881590194957Q2965.0452593680193 594.5042018275162 2966.5158476099796 602.0799594376164Q2968.00871749197 609.6557170477165 2967.3625499311083 617.7662340185295L2967.3625499311083 617.7662340185295L2911.8589846171108 617.7662340185295L2911.8589846171108 610.0567865682513L2959.096061480088 610.0567865682513L2955.4195908751863 612.4632036914595Q2955.6646889155127 607.7394960051618 2954.8848315144733 602.9935066788344Q2954.127255753463 598.2697989925366 2952.0550632307004 594.303667067249Q2949.9605890679086 590.3375351419613 2946.1949919028875 587.9311180187531Q2942.4293947378674 585.5247008955448 2936.5693234100554 585.5247008955448L2936.5693234100554 585.5247008955448Q2929.194100560222 585.5247008955448 2924.203013193568 589.2902980605651Q2919.234207466943 593.0558952255853 2916.7609454236463 599.1833462337546Q2914.2654017403192 605.3330788819535 2914.2654017403192 612.4632036914595L2914.2654017403192 612.4632036914595L2914.2654017403192 617.6102625383215Q2914.2654017403192 625.6316529490158 2916.716382143587 631.9596387174523Q2919.167362546854 638.2876244858888 2924.04704171336 641.9863767308201Q2928.9490025198947 645.6851289757512 2936.4133519298466 645.6851289757512L2936.4133519298466 645.6851289757512Q2943.8554196997684 645.6851289757512 2948.6682539461854 642.075503290939Q2953.4810881926014 638.4658776061265 2954.5283252739982 631.4025977167096L2954.5283252739982 631.4025977167096L2967.518521411317 631.4025977167096Q2966.3153128497124 639.0229186068691 2962.0818012440686 644.5042020541769Q2957.8260079983947 650.0077671415143 2951.252924189631 652.9712252654651Q2944.657558740838 655.9346833894161 2936.4133519298466 655.9346833894161ZM3059.05149865335 654.0184623468614L3046.7074700768926 654.0184623468614L3046.7074700768926 608.9427045667659Q3046.7074700768926 597.9578560321207 3041.449003029882 592.2091929044566Q3036.1905359828706 586.4828114168221 3027.1219084907807 586.4828114168221L3027.1219084907807 586.4828114168221Q3020.236881721601 586.4828114168221 3015.1789494348577 590.2484085818425Q3010.1210171481143 594.0140057468627 3007.40265706449 601.0327223562201Q3004.6620153408367 608.0514389655776 3004.6620153408367 617.7662340185295L3004.6620153408367 617.7662340185295L2999.8491810944206 617.7662340185295Q2999.8491810944206 604.3749683606761 3003.3919618591435 594.905271348051Q3006.9124609838373 585.4355743354258 3013.6860795528673 580.422205328742Q3020.4596981218983 575.4088363220582 3030.17449317485 575.4088363220582L3030.17449317485 575.4088363220582Q3039.2431206669407 575.4088363220582 3045.704796275555 579.4640948074647Q3052.14419024414 583.5193532928712 3055.5978444487446 591.0505476229118Q3059.05149865335 598.5817419529526 3059.05149865335 608.9427045667659L3059.05149865335 608.9427045667659L3059.05149865335 654.0184623468614ZM3004.6620153408367 654.0184623468614L2992.1620152841715 654.0184623468614L2992.1620152841715 577.3250573646128L3002.90176577849 577.3250573646128L3004.6620153408367 594.9721162681401L3004.6620153408367 654.0184623468614ZM3112.549716364674 655.9346833894161L3112.549716364674 655.9346833894161Q3106.288575516326 655.9346833894161 3101.319769789702 653.5282662662079Q3096.3509640630773 651.1218491429995 3093.454350859216 646.309014896583Q3090.580019295384 641.4961806501665 3090.580019295384 634.2769292805417L3090.580019295384 634.2769292805417L3090.580019295384 556.0015278561841L3102.9240478718402 556.0015278561841L3102.9240478718402 633.9649863201258Q3102.9240478718402 645.8411004559592 3113.9980229666044 645.8411004559592L3113.9980229666044 645.8411004559592Q3117.295705691001 645.8411004559592 3120.3705720151 645.105806334979Q3123.4677199792295 644.3927938540284 3127.322443704369 642.9444872520974L3127.322443704369 642.9444872520974L3129.082693266716 651.923988184069Q3124.98287150125 653.7065193864455 3120.9276130158432 654.8206013879308Q3116.8946361704666 655.9346833894161 3112.549716364674 655.9346833894161ZM3127.144190584131 585.9926153361686L3078.2137090788965 585.9926153361686L3078.2137090788965 577.3250573646128L3127.144190584131 577.3250573646128L3127.144190584131 585.9926153361686Z " fill="#1f9bed" transform="matrix(0.29097485355119174,0,0,0.29097485355119174,-35.48443066770559,120.03807409663989)"/></g></svg>